<?xml version="1.0" encoding="UTF-8" standalone="no"?>
<!-- Created with Inkscape (http://www.inkscape.org/) -->
<svg
   xmlns:dc="http://purl.org/dc/elements/1.1/"
   xmlns:cc="http://web.resource.org/cc/"
   xmlns:rdf="http://www.w3.org/1999/02/22-rdf-syntax-ns#"
   xmlns:svg="http://www.w3.org/2000/svg"
   xmlns="http://www.w3.org/2000/svg"
   xmlns:xlink="http://www.w3.org/1999/xlink"
   xmlns:sodipodi="http://sodipodi.sourceforge.net/DTD/sodipodi-0.dtd"
   xmlns:inkscape="http://www.inkscape.org/namespaces/inkscape"
   width="596.75433"
   height="427.74475"
   id="svg10339"
   sodipodi:version="0.32"
   inkscape:version="0.45"
   sodipodi:docbase="C:\JK\IMAGENES\VECTOR"
   sodipodi:docname="kawaii.svg"
   inkscape:output_extension="org.inkscape.output.svg.inkscape"
   version="1.0"
   sodipodi:modified="true">
  <defs
     id="defs10341">
    <linearGradient
       inkscape:collect="always"
       id="linearGradient8053">
      <stop
         style="stop-color:#ffffff;stop-opacity:1;"
         offset="0"
         id="stop8055" />
      <stop
         style="stop-color:#ffffff;stop-opacity:0;"
         offset="1"
         id="stop8057" />
    </linearGradient>
    <linearGradient
       id="linearGradient10317">
      <stop
         style="stop-color:#236eaf;stop-opacity:1;"
         offset="0"
         id="stop10319" />
      <stop
         id="stop7018"
         offset="1"
         style="stop-color:#000000;stop-opacity:0.49803922;" />
      <stop
         style="stop-color:#ffffff;stop-opacity:0;"
         offset="1"
         id="stop10321" />
    </linearGradient>
    <linearGradient
       id="linearGradient7364">
      <stop
         style="stop-color:#541515;stop-opacity:1;"
         offset="0"
         id="stop7366" />
      <stop
         id="stop7378"
         offset="1"
         style="stop-color:#ca0000;stop-opacity:0.87450981;" />
    </linearGradient>
    <linearGradient
       id="linearGradient7388">
      <stop
         id="stop7390"
         offset="0"
         style="stop-color:#153354;stop-opacity:1;" />
      <stop
         style="stop-color:#fffe47;stop-opacity:0.87450981;"
         offset="1"
         id="stop7392" />
    </linearGradient>
    <linearGradient
       inkscape:collect="always"
       xlink:href="#linearGradient10317"
       id="linearGradient12375"
       x1="308.18661"
       y1="211.7821"
       x2="470.07813"
       y2="211.7821"
       gradientUnits="userSpaceOnUse"
       spreadMethod="pad" />
    <linearGradient
       inkscape:collect="always"
       xlink:href="#linearGradient10317"
       id="linearGradient12389"
       gradientUnits="userSpaceOnUse"
       spreadMethod="pad"
       x1="308.18661"
       y1="211.7821"
       x2="470.07813"
       y2="211.7821" />
    <linearGradient
       inkscape:collect="always"
       xlink:href="#linearGradient10317"
       id="linearGradient12393"
       gradientUnits="userSpaceOnUse"
       spreadMethod="pad"
       x1="308.18661"
       y1="211.7821"
       x2="470.07813"
       y2="211.7821" />
    <linearGradient
       inkscape:collect="always"
       xlink:href="#linearGradient10317"
       id="linearGradient12407"
       gradientUnits="userSpaceOnUse"
       spreadMethod="pad"
       x1="308.18661"
       y1="211.7821"
       x2="470.07813"
       y2="211.7821" />
    <linearGradient
       inkscape:collect="always"
       xlink:href="#linearGradient10317"
       id="linearGradient12411"
       gradientUnits="userSpaceOnUse"
       spreadMethod="pad"
       x1="308.18661"
       y1="211.7821"
       x2="470.07813"
       y2="211.7821" />
    <linearGradient
       inkscape:collect="always"
       xlink:href="#linearGradient10317"
       id="linearGradient12500"
       gradientUnits="userSpaceOnUse"
       spreadMethod="pad"
       x1="308.18661"
       y1="211.7821"
       x2="470.07813"
       y2="211.7821" />
    <linearGradient
       inkscape:collect="always"
       xlink:href="#linearGradient10317"
       id="linearGradient12502"
       gradientUnits="userSpaceOnUse"
       spreadMethod="pad"
       x1="308.18661"
       y1="211.7821"
       x2="470.07813"
       y2="211.7821" />
    <linearGradient
       inkscape:collect="always"
       xlink:href="#linearGradient7364"
       id="linearGradient6002"
       gradientUnits="userSpaceOnUse"
       x1="-2510.8079"
       y1="1034.3414"
       x2="-2370.7563"
       y2="1301.0625" />
    <linearGradient
       inkscape:collect="always"
       xlink:href="#linearGradient10317"
       id="linearGradient6004"
       gradientUnits="userSpaceOnUse"
       spreadMethod="pad"
       x1="308.18661"
       y1="211.7821"
       x2="470.07813"
       y2="211.7821" />
    <linearGradient
       inkscape:collect="always"
       xlink:href="#linearGradient10317"
       id="linearGradient6008"
       gradientUnits="userSpaceOnUse"
       spreadMethod="pad"
       x1="308.18661"
       y1="211.7821"
       x2="470.07813"
       y2="211.7821" />
    <linearGradient
       inkscape:collect="always"
       xlink:href="#linearGradient10317"
       id="linearGradient7004"
       gradientUnits="userSpaceOnUse"
       spreadMethod="pad"
       x1="308.18661"
       y1="211.7821"
       x2="470.07813"
       y2="211.7821" />
    <linearGradient
       inkscape:collect="always"
       xlink:href="#linearGradient10317"
       id="linearGradient7006"
       gradientUnits="userSpaceOnUse"
       spreadMethod="pad"
       x1="308.18661"
       y1="211.7821"
       x2="470.07813"
       y2="211.7821" />
    <linearGradient
       inkscape:collect="always"
       xlink:href="#linearGradient10317"
       id="linearGradient7020"
       gradientUnits="userSpaceOnUse"
       spreadMethod="pad"
       x1="308.18661"
       y1="211.7821"
       x2="470.07813"
       y2="211.7821" />
    <linearGradient
       inkscape:collect="always"
       xlink:href="#linearGradient10317"
       id="linearGradient7024"
       gradientUnits="userSpaceOnUse"
       spreadMethod="pad"
       x1="308.18661"
       y1="211.7821"
       x2="470.07813"
       y2="211.7821" />
    <linearGradient
       inkscape:collect="always"
       xlink:href="#linearGradient10317"
       id="linearGradient7048"
       gradientUnits="userSpaceOnUse"
       spreadMethod="pad"
       x1="308.18661"
       y1="211.7821"
       x2="470.07813"
       y2="211.7821" />
    <linearGradient
       inkscape:collect="always"
       xlink:href="#linearGradient10317"
       id="linearGradient7052"
       gradientUnits="userSpaceOnUse"
       spreadMethod="pad"
       x1="308.18661"
       y1="211.7821"
       x2="470.07813"
       y2="211.7821" />
    <linearGradient
       inkscape:collect="always"
       xlink:href="#linearGradient8053"
       id="linearGradient8059"
       x1="203.43352"
       y1="302.83429"
       x2="346.29904"
       y2="302.83429"
       gradientUnits="userSpaceOnUse"
       gradientTransform="matrix(1,0,0,0.3884128,-5.0262074,129.98708)" />
    <linearGradient
       inkscape:collect="always"
       xlink:href="#linearGradient8053"
       id="linearGradient11013"
       gradientUnits="userSpaceOnUse"
       gradientTransform="matrix(8.9155782e-2,0.2725088,9.4307621e-2,-4.3275213e-2,-19.81509,320.77253)"
       x1="203.43352"
       y1="302.83429"
       x2="346.29904"
       y2="302.83429" />
    <linearGradient
       inkscape:collect="always"
       xlink:href="#linearGradient8053"
       id="linearGradient11017"
       gradientUnits="userSpaceOnUse"
       gradientTransform="matrix(-6.3760148e-2,0.2795433,0.1031328,1.1414897e-2,101.37386,295.18194)"
       x1="203.43352"
       y1="302.83429"
       x2="346.29904"
       y2="302.83429" />
    <linearGradient
       inkscape:collect="always"
       xlink:href="#linearGradient8053"
       id="linearGradient11027"
       gradientUnits="userSpaceOnUse"
       gradientTransform="matrix(8.9155782e-2,0.2725088,9.4307621e-2,-4.3275213e-2,-19.81509,320.77253)"
       x1="203.43352"
       y1="302.83429"
       x2="346.29904"
       y2="302.83429" />
    <linearGradient
       inkscape:collect="always"
       xlink:href="#linearGradient8053"
       id="linearGradient11029"
       gradientUnits="userSpaceOnUse"
       gradientTransform="matrix(-6.3760148e-2,0.2795433,0.1031328,1.1414897e-2,101.37386,295.18194)"
       x1="203.43352"
       y1="302.83429"
       x2="346.29904"
       y2="302.83429" />
    <linearGradient
       inkscape:collect="always"
       xlink:href="#linearGradient7364"
       id="linearGradient5769"
       gradientUnits="userSpaceOnUse"
       x1="-2510.8079"
       y1="1034.3414"
       x2="-2370.7563"
       y2="1301.0625" />
    <linearGradient
       inkscape:collect="always"
       xlink:href="#linearGradient8053"
       id="linearGradient5771"
       gradientUnits="userSpaceOnUse"
       gradientTransform="matrix(1,0,0,0.3884128,-5.0262074,129.98708)"
       x1="203.43352"
       y1="302.83429"
       x2="346.29904"
       y2="302.83429" />
  </defs>
  <sodipodi:namedview
     id="base"
     pagecolor="#ffffff"
     bordercolor="#666666"
     borderopacity="1.0"
     inkscape:pageopacity="0.0"
     inkscape:pageshadow="2"
     inkscape:zoom="0.88937023"
     inkscape:cx="287.15195"
     inkscape:cy="131.77112"
     inkscape:document-units="px"
     inkscape:current-layer="layer1"
     inkscape:window-width="1024"
     inkscape:window-height="717"
     inkscape:window-x="-4"
     inkscape:window-y="-4" />
  <metadata
     id="metadata10344">
    <rdf:RDF>
      <cc:Work
         rdf:about="">
        <dc:format>image/svg+xml</dc:format>
        <dc:type
           rdf:resource="http://purl.org/dc/dcmitype/StillImage" />
      </cc:Work>
    </rdf:RDF>
  </metadata>
  <g
     inkscape:label="Capa 1"
     inkscape:groupmode="layer"
     id="layer1"
     transform="translate(-4.5280638,-196.72703)">
    <g
       id="g5762">
      <path
         style="fill:#ffcc00;fill-opacity:1;stroke:#1f1a17;stroke-width:20.96331596;stroke-miterlimit:4"
         d="M 242.32496,207.20869 L 531.81332,207.20869 C 564.26823,207.20869 590.80072,229.88645 590.80072,257.62613 L 590.80072,563.37023 C 590.80072,591.31241 564.26823,613.99014 531.81332,613.99014 L 242.32496,613.99014 C 209.87004,613.99014 183.10068,591.31241 183.10068,563.37023 L 183.10068,257.62613 C 183.10068,229.88645 209.87004,207.20869 242.32496,207.20869 z "
         id="40043480" />
      <path
         transform="matrix(0.2451483,3.7280815e-2,-2.4755295e-2,0.1627839,992.58957,336.62373)"
         style="fill:url(#linearGradient5769);fill-opacity:1;fill-rule:nonzero;stroke:#0000ff;stroke-width:0.40000001;stroke-linecap:round;stroke-linejoin:round;stroke-miterlimit:4;stroke-dashoffset:0;stroke-opacity:1"
         d="M -1937.8977,917.08568 C -1886.149,1209.2319 -2037.9892,1497.7093 -2276.8267,1561.0083 C -2515.6641,1624.3073 -2751.5021,1438.5762 -2803.2508,1146.4299 C -2804.4973,1139.3925 -2805.4594,1133.4167 -2806.4875,1126.3266 L -2370.5742,1031.7578 L -1937.8977,917.08568 z "
         id="path6383" />
      <path
         transform="matrix(0.2358136,0,0,-0.2358136,517.36801,727.67011)"
         style="fill:none;fill-opacity:1;fill-rule:nonzero;stroke:#000000;stroke-width:100.01004791;stroke-linecap:round;stroke-linejoin:round;stroke-miterlimit:4;stroke-dashoffset:0;stroke-opacity:1"
         d="M -690.72924,1516.6804 C -664.33619,1638.4932 -741.77831,1758.7762 -863.59111,1785.1693 C -985.40391,1811.5623 -1105.6869,1734.1202 -1132.08,1612.3074 C -1138.9749,1580.4849 -1139.2064,1552.2337 -1132.8338,1520.3025"
         id="path6391" />
      <path
         transform="matrix(0.2358136,0,0,-0.2358136,688.80492,731.96797)"
         style="fill:none;fill-opacity:1;fill-rule:nonzero;stroke:#000000;stroke-width:100.01004791;stroke-linecap:round;stroke-linejoin:round;stroke-miterlimit:4;stroke-dashoffset:0;stroke-opacity:1"
         d="M -690.72924,1516.6804 C -664.33619,1638.4932 -741.77831,1758.7762 -863.59111,1785.1693 C -985.40391,1811.5623 -1105.6869,1734.1202 -1132.08,1612.3074 C -1138.9749,1580.4849 -1139.2064,1552.2337 -1132.8338,1520.3025"
         id="path6393" />
      <path
         sodipodi:nodetypes="ccccc"
         d="M 320.60258,221.10027 C 331.97537,221.10027 313.12608,224.57732 313.12608,228.35288 C 195.22331,215.08977 224.22506,270.22204 211.11864,305.7497 C 199.74585,305.7497 198.40731,273.37945 198.40731,269.57633 C 205.03748,203.70766 271.59404,225.19386 320.60258,221.10027 z "
         style="fill:url(#linearGradient5771);fill-opacity:1;stroke:none;stroke-width:7.34592867;stroke-miterlimit:4;stroke-dasharray:none"
         id="path7082" />
    </g>
    <g
       id="g11019"
       transform="matrix(1.1914431,-0.4215918,0.4235154,1.1968795,-166.03164,-33.945337)">
      <path
         sodipodi:nodetypes="csssssccss"
         id="path8073"
         d="M 160.65327,456.40829 C 161.11381,475.02466 164.91168,496.67548 158.58685,512.49282 C 154.35004,523.08837 140.38471,532.2505 128.96835,535.64697 C 113.12246,540.36126 93.556703,539.92317 76.805041,537.01711 C 65.298863,535.02103 53.380449,530.26091 44.419491,521.10886 C 35.906959,512.41479 30.727803,501.46785 29.151251,489.5277 C 27.790083,479.21877 25.395081,466.14283 37.404501,462.36851 C 49.005581,453.831 59.771561,443.12687 73.693441,438.56628 C 96.954451,432.65383 120.48552,440.38577 143.50619,443.25641 C 150.43139,444.11997 160.46167,448.66343 160.65327,456.40829 z "
         style="fill:#ffcc00;fill-rule:evenodd;stroke:#000000;stroke-width:12;stroke-linecap:round;stroke-linejoin:round;stroke-miterlimit:4;stroke-dasharray:none;stroke-opacity:1" />
      <path
         sodipodi:nodetypes="czzzczzzc"
         id="path8067"
         d="M 123.98341,433.99612 C 132.66999,411.95526 146.78499,389.68147 146.8935,376.00827 C 147.00201,362.33507 137.47377,350.59225 126.05481,349.57679 C 114.63585,348.56133 106.1741,354.87761 102.01747,369.9528 C 97.860841,385.028 87.286812,406.7693 79.921492,425.17755 C 74.413752,404.39093 69.085703,384.92165 61.662533,371.49635 C 54.239363,358.07104 42.999437,349.45643 31.182302,353.6771 C 19.365167,357.89777 13.86316,373.33362 21.3449,390.75425 C 28.82664,408.17489 34.940452,431.51753 38.613442,456.04251"
         style="fill:#ffcc00;fill-rule:evenodd;stroke:#000000;stroke-width:12;stroke-linecap:round;stroke-linejoin:round;stroke-miterlimit:4;stroke-dasharray:none;stroke-opacity:1" />
      <path
         sodipodi:nodetypes="czcccccczc"
         id="path8069"
         d="M 42.917838,467.98696 C 37.589398,460.05062 24.330166,460.37612 15.425031,467.0705 C 6.519896,473.76489 5.889581,486.52785 9.902941,496.39127 C 14.640301,507.9658 24.280221,518.32315 36.166871,522.51852 C 46.468851,526.56478 55.311981,519.81744 56.591031,509.62601 C 59.809271,502.05754 60.663801,492.09764 53.877831,486.16714 C 50.998991,483.2978 66.409251,497.20271 77.899401,492.9541 C 90.345261,490.92868 90.171919,486.58366 92.890509,477.59136 C 91.159659,466.52912 83.648529,425.74939 61.043262,438.89914 C 38.437995,452.04889 37.428359,454.68888 42.917838,467.98696 z "
         style="fill:#ffcc00;fill-rule:evenodd;stroke:#000000;stroke-width:12;stroke-linecap:round;stroke-linejoin:round;stroke-miterlimit:4;stroke-dasharray:none;stroke-opacity:1" />
      <path
         sodipodi:nodetypes="cssssss"
         id="path8065"
         d="M 157.44674,453.90413 C 154.85766,442.15771 151.69648,434.03462 140.52584,434.68379 C 129.35521,435.33295 83.260718,439.26077 78.79016,443.68721 C 75.829818,446.61834 75.433751,464.81378 84.255136,472.64394 C 93.182016,480.56774 128.32105,464.68893 127.45943,465.29075 C 120.14601,470.399 111.06181,480.81344 112.33169,493.60809 C 113.49581,505.33724 121.07838,508.38699 130.29601,509.70586"
         style="fill:#ffcc00;fill-rule:evenodd;stroke:#000000;stroke-width:12;stroke-linecap:round;stroke-linejoin:round;stroke-miterlimit:4;stroke-dasharray:none;stroke-opacity:1" />
      <path
         style="fill:url(#linearGradient11027);fill-opacity:1;stroke:none;stroke-width:7.34592867;stroke-miterlimit:4"
         d="M 28.204892,391.02625 C 29.218838,394.12542 37.507586,402.84442 38.4243,402.42376 C 31.558285,387.09785 30.65032,379.12125 32.351398,373.79683 C 33.992161,368.6612 37.965854,363.81649 48.121897,366.00262 C 47.107955,362.90344 37.71938,357.38048 29.556684,362.16514 C 21.58728,372.05586 26.517158,384.12057 28.204892,391.02625 z "
         id="path11011" />
      <path
         style="fill:url(#linearGradient11029);fill-opacity:1;stroke:none;stroke-width:7.34592867;stroke-miterlimit:4"
         d="M 106.40359,380.13019 C 105.67846,383.30936 108.29987,395.05042 109.30236,395.16137 C 111.30029,378.48702 114.62579,371.18007 118.82392,367.48971 C 122.8732,363.93019 128.77325,361.82046 136.35707,368.92045 C 137.08221,365.74128 131.87332,356.17488 122.41218,356.07782 C 110.48964,360.45856 108.50946,373.34033 106.40359,380.13019 z "
         id="path11015" />
    </g>
  </g>
</svg>
